<mxfile host="app.diagrams.net" modified="2021-04-13T11:46:04.359Z" agent="5.0 (Windows NT 10.0; Win64; x64) AppleWebKit/537.36 (KHTML, like Gecko) Chrome/89.0.4389.72 Safari/537.36" etag="DOGLGnYGoj0dQeq_xUs2" version="14.5.7" type="github">
  <diagram id="D4izmCXNEkPT1g5gj4nk" name="Page-1">
    <mxGraphModel dx="976" dy="588" grid="1" gridSize="10" guides="1" tooltips="1" connect="1" arrows="1" fold="1" page="1" pageScale="1" pageWidth="827" pageHeight="1169" math="0" shadow="0">
      <root>
        <mxCell id="0" />
        <mxCell id="1" parent="0" />
        <mxCell id="-yNB8P_1kef4w1te0aaM-1" value="用户权限管理" style="rounded=1;whiteSpace=wrap;html=1;fillColor=#1ba1e2;strokeColor=#006EAF;fontColor=#ffffff;" vertex="1" parent="1">
          <mxGeometry x="280" y="80" width="120" height="40" as="geometry" />
        </mxCell>
        <mxCell id="-yNB8P_1kef4w1te0aaM-4" value="投稿管理" style="rounded=1;whiteSpace=wrap;html=1;fillColor=#1ba1e2;strokeColor=#006EAF;fontColor=#ffffff;" vertex="1" parent="1">
          <mxGeometry x="280" y="160" width="120" height="40" as="geometry" />
        </mxCell>
        <mxCell id="-yNB8P_1kef4w1te0aaM-5" value="评审管理" style="rounded=1;whiteSpace=wrap;html=1;fillColor=#1ba1e2;strokeColor=#006EAF;fontColor=#ffffff;" vertex="1" parent="1">
          <mxGeometry x="280" y="240" width="120" height="40" as="geometry" />
        </mxCell>
        <mxCell id="-yNB8P_1kef4w1te0aaM-6" value="出版管理" style="rounded=1;whiteSpace=wrap;html=1;fillColor=#1ba1e2;strokeColor=#006EAF;fontColor=#ffffff;" vertex="1" parent="1">
          <mxGeometry x="280" y="320" width="120" height="40" as="geometry" />
        </mxCell>
        <mxCell id="-yNB8P_1kef4w1te0aaM-8" value="" style="endArrow=classic;html=1;entryX=0;entryY=0.5;entryDx=0;entryDy=0;" edge="1" parent="1" target="-yNB8P_1kef4w1te0aaM-5">
          <mxGeometry width="50" height="50" relative="1" as="geometry">
            <mxPoint x="160" y="240" as="sourcePoint" />
            <mxPoint x="210" y="190" as="targetPoint" />
          </mxGeometry>
        </mxCell>
        <mxCell id="-yNB8P_1kef4w1te0aaM-9" value="" style="endArrow=classic;html=1;entryX=1;entryY=0.5;entryDx=0;entryDy=0;" edge="1" parent="1" target="-yNB8P_1kef4w1te0aaM-5">
          <mxGeometry width="50" height="50" relative="1" as="geometry">
            <mxPoint x="520" y="240" as="sourcePoint" />
            <mxPoint x="520" y="240" as="targetPoint" />
          </mxGeometry>
        </mxCell>
        <mxCell id="-yNB8P_1kef4w1te0aaM-15" style="edgeStyle=orthogonalEdgeStyle;rounded=0;orthogonalLoop=1;jettySize=auto;html=1;exitX=1;exitY=0.3333333333333333;exitDx=0;exitDy=0;exitPerimeter=0;entryX=0;entryY=0.5;entryDx=0;entryDy=0;" edge="1" parent="1" source="-yNB8P_1kef4w1te0aaM-12" target="-yNB8P_1kef4w1te0aaM-1">
          <mxGeometry relative="1" as="geometry">
            <Array as="points">
              <mxPoint x="220" y="240" />
              <mxPoint x="220" y="100" />
            </Array>
          </mxGeometry>
        </mxCell>
        <mxCell id="-yNB8P_1kef4w1te0aaM-12" value="主编、编辑、管理员" style="shape=umlActor;verticalLabelPosition=bottom;verticalAlign=top;html=1;outlineConnect=0;fillColor=#f8cecc;strokeColor=#b85450;" vertex="1" parent="1">
          <mxGeometry x="50" y="180" width="110" height="180" as="geometry" />
        </mxCell>
        <mxCell id="-yNB8P_1kef4w1te0aaM-24" style="edgeStyle=orthogonalEdgeStyle;rounded=0;orthogonalLoop=1;jettySize=auto;html=1;exitX=0;exitY=0.3333333333333333;exitDx=0;exitDy=0;exitPerimeter=0;entryX=1;entryY=0.5;entryDx=0;entryDy=0;" edge="1" parent="1" source="-yNB8P_1kef4w1te0aaM-14" target="-yNB8P_1kef4w1te0aaM-4">
          <mxGeometry relative="1" as="geometry" />
        </mxCell>
        <mxCell id="-yNB8P_1kef4w1te0aaM-14" value="作者、审稿专家" style="shape=umlActor;verticalLabelPosition=bottom;verticalAlign=top;html=1;outlineConnect=0;fillColor=#d5e8d4;strokeColor=#82b366;" vertex="1" parent="1">
          <mxGeometry x="520" y="180" width="110" height="180" as="geometry" />
        </mxCell>
        <mxCell id="-yNB8P_1kef4w1te0aaM-16" value="" style="endArrow=classic;html=1;entryX=0;entryY=0.5;entryDx=0;entryDy=0;" edge="1" parent="1" target="-yNB8P_1kef4w1te0aaM-4">
          <mxGeometry width="50" height="50" relative="1" as="geometry">
            <mxPoint x="220" y="180" as="sourcePoint" />
            <mxPoint x="270" y="130" as="targetPoint" />
          </mxGeometry>
        </mxCell>
        <mxCell id="-yNB8P_1kef4w1te0aaM-17" value="" style="endArrow=classic;html=1;entryX=0;entryY=0;entryDx=0;entryDy=0;" edge="1" parent="1" target="-yNB8P_1kef4w1te0aaM-6">
          <mxGeometry width="50" height="50" relative="1" as="geometry">
            <mxPoint x="160" y="240" as="sourcePoint" />
            <mxPoint x="210" y="190" as="targetPoint" />
          </mxGeometry>
        </mxCell>
        <mxCell id="-yNB8P_1kef4w1te0aaM-18" value="" style="endArrow=classic;html=1;entryX=1;entryY=0.5;entryDx=0;entryDy=0;" edge="1" parent="1" target="-yNB8P_1kef4w1te0aaM-4">
          <mxGeometry width="50" height="50" relative="1" as="geometry">
            <mxPoint x="460" y="180" as="sourcePoint" />
            <mxPoint x="510" y="130" as="targetPoint" />
          </mxGeometry>
        </mxCell>
      </root>
    </mxGraphModel>
  </diagram>
</mxfile>
